<svg width="48" height="48" viewBox="0 0 48 48" fill="none" xmlns="http://www.w3.org/2000/svg">
<circle cx="24" cy="24" r="24" fill="#E6E6E6"/>
<path d="M37.4044 13.5956C36.2808 12.472 34.9965 11.8136 33.7724 11.682C32.5729 11.553 31.3681 11.9202 30.3166 12.9713C30.3163 12.9716 30.3161 12.9719 30.3158 12.9721L16.4197 26.9507C15.7938 27.5803 15.3613 28.376 15.1733 29.2437L13.6225 36.4021C13.4962 36.9852 14.0148 37.5038 14.5979 37.3775L21.7563 35.8267C22.624 35.6387 23.4197 35.2062 24.0493 34.5803L38.0278 20.6842C38.0281 20.6839 38.0284 20.6836 38.0287 20.6834C39.0797 19.6319 39.447 18.4271 39.318 17.2276C39.1864 16.0034 38.5279 14.7192 37.4044 13.5956Z" fill="#D27C2C" stroke="black" stroke-width="1.64062"/>
<path d="M36.3438 22.8594L28.6875 15.2031" stroke="black" stroke-width="1.64062"/>
<mask id="path-4-inside-1_0_1" fill="white">
<path fill-rule="evenodd" clip-rule="evenodd" d="M16.4526 25.7539L15.8377 26.3725C15.1015 27.1132 14.5927 28.0492 14.3716 29.0699L12.8207 36.2285C12.5681 37.3947 13.6053 38.4319 14.7715 38.1793L21.9301 36.6284C22.9508 36.4073 23.8868 35.8985 24.6275 35.1623L25.2461 34.5474L16.4526 25.7539Z"/>
</mask>
<path fill-rule="evenodd" clip-rule="evenodd" d="M16.4526 25.7539L15.8377 26.3725C15.1015 27.1132 14.5927 28.0492 14.3716 29.0699L12.8207 36.2285C12.5681 37.3947 13.6053 38.4319 14.7715 38.1793L21.9301 36.6284C22.9508 36.4073 23.8868 35.8985 24.6275 35.1623L25.2461 34.5474L16.4526 25.7539Z" fill="#FFF4D9"/>
<path d="M16.4526 25.7539L15.289 24.5973L16.4491 23.4302L17.6127 24.5938L16.4526 25.7539ZM15.8377 26.3725L17.0013 27.5291L17.0013 27.5291L15.8377 26.3725ZM14.3716 29.0699L15.975 29.4173V29.4173L14.3716 29.0699ZM12.8207 36.2285L11.2173 35.8811L12.8207 36.2285ZM14.7715 38.1793L14.4242 36.5758L14.4242 36.5758L14.7715 38.1793ZM21.9301 36.6284L22.2774 38.2319H22.2774L21.9301 36.6284ZM24.6275 35.1623L23.4709 33.9987H23.4709L24.6275 35.1623ZM25.2461 34.5474L26.4062 33.3873L27.5698 34.5509L26.4027 35.711L25.2461 34.5474ZM17.6162 26.9105L17.0013 27.5291L14.6741 25.2159L15.289 24.5973L17.6162 26.9105ZM17.0013 27.5291C16.4859 28.0476 16.1298 28.7028 15.975 29.4173L12.7681 28.7226C13.0556 27.3957 13.717 26.1788 14.6741 25.2159L17.0013 27.5291ZM15.975 29.4173L14.4242 36.5758L11.2173 35.8811L12.7681 28.7226L15.975 29.4173ZM14.4242 36.5758H14.4242L15.1189 39.7827C12.7865 40.288 10.712 38.2135 11.2173 35.8811L14.4242 36.5758ZM14.4242 36.5758L21.5827 35.025L22.2774 38.2319L15.1189 39.7827L14.4242 36.5758ZM21.5827 35.025C22.2972 34.8702 22.9524 34.5141 23.4709 33.9987L25.7841 36.3259C24.8212 37.283 23.6043 37.9444 22.2774 38.2319L21.5827 35.025ZM23.4709 33.9987L24.0895 33.3838L26.4027 35.711L25.7841 36.3259L23.4709 33.9987ZM17.6127 24.5938L26.4062 33.3873L24.086 35.7075L15.2925 26.914L17.6127 24.5938Z" fill="black" mask="url(#path-4-inside-1_0_1)"/>
<path fill-rule="evenodd" clip-rule="evenodd" d="M13.9368 31.0771L12.8208 36.2284C12.5682 37.3946 13.6054 38.4318 14.7716 38.1792L19.9229 37.0632L13.9368 31.0771Z" fill="black"/>
</svg>
